<svg width="18" height="18" viewBox="0 0 18 18" fill="none" xmlns="http://www.w3.org/2000/svg">
<path d="M11.9903 8.58413L11.6368 8.93769L11.9903 9.29124L16.9622 14.2631C17.377 14.6779 17.377 15.3509 16.9622 15.7657L15.8573 16.8705C15.4425 17.2854 14.7695 17.2854 14.3547 16.8705L9.38285 11.8987L9.0293 11.5451L8.67574 11.8987L3.7039 16.8705C3.28907 17.2854 2.61612 17.2854 2.2013 16.8705L1.09644 15.7657C0.681618 15.3509 0.681618 14.6779 1.09644 14.2631L6.06829 9.29124L6.42184 8.93769L6.06829 8.58413L1.09644 3.61229C0.681618 3.19746 0.681618 2.52451 1.09644 2.10969L2.2013 1.00483C2.61612 0.590008 3.28907 0.590008 3.7039 1.00483L8.67574 5.97668L9.0293 6.33023L9.38285 5.97668L14.3547 1.00483C14.7695 0.590008 15.4425 0.590008 15.8573 1.00483L16.9622 2.10969C17.377 2.52451 17.377 3.19746 16.9622 3.61229L11.9903 8.58413Z" fill="black" stroke="white"/>
</svg>
