<?xml version="1.0" encoding="utf-8"?>
<!-- Generator: Adobe Illustrator 25.2.1, SVG Export Plug-In . SVG Version: 6.00 Build 0)  -->
<svg version="1.1" id="Ebene_1" xmlns="http://www.w3.org/2000/svg" xmlns:xlink="http://www.w3.org/1999/xlink" x="0px" y="0px"
	 viewBox="0 0 595.28 841.89" style="enable-background:new 0 0 595.28 841.89;" xml:space="preserve">
<g>
	<path d="M243.67,395.99c1.2-18.95,12.02-36.67,33.95-46.22c20.91-9.11,40.84-5.86,58.58,8.37c21.27,17.06,26.94,48.68,12.25,71.73
		c-13.41,21.04-27.94,41.38-42.11,61.93c-3.85,5.58-8.72,5.66-12.51,0.18c-14.38-20.82-28.72-41.66-42.76-62.71
		C245.36,420.72,243.13,410.52,243.67,395.99z M300.21,485.1c14.08-20.86,27.73-40.7,40.96-60.81c6.69-10.16,8.53-21.61,5.94-33.51
		c-4.23-19.37-16.11-32.08-35.29-36.62c-19.64-4.65-36.43,1.68-48.62,17.68c-11.96,15.7-14.42,33.18-4.93,51.02
		c4.82,9.07,10.92,17.48,16.71,26C283.01,460.67,291.28,472.3,300.21,485.1z"/>
	<path d="M297.51,402.97c-6.47,0-12.37,0-19.29,0c2.65-4.75,6.28-2.6,9-2.92c3.23-0.38,6.54-0.09,10.59-0.09c0-6.4,0-12.21,0-18.02
		c0.74-0.03,1.48-0.07,2.23-0.1c0.26,5.88,0.53,11.75,0.79,17.69c6.11,1.4,12.49-0.83,18.21,1.34c-0.05,0.62-0.09,1.23-0.14,1.85
		c-5.85,0-11.69,0-18.39,0c0,5.68,0.08,10.75-0.06,15.81c-0.03,1.1-0.82,2.17-1.26,3.26c-0.56-1.14-1.55-2.26-1.59-3.42
		C297.4,413.43,297.51,408.48,297.51,402.97z"/>
</g>
</svg>
